#define 0887edb2c9c9437aae75f3481ac530dcIoCZ6krjKVssKcpX_width 40
#define 0887edb2c9c9437aae75f3481ac530dcIoCZ6krjKVssKcpX_height 40
static char 0887edb2c9c9437aae75f3481ac530dcIoCZ6krjKVssKcpX_bits[] = {
  0x00, 0x00, 0x00, 0x00, 0x00, 0x00, 0x00, 0x00, 0x00, 0x00, 0x00, 0x00, 
  0x00, 0x00, 0x00, 0x00, 0x00, 0x00, 0x00, 0x00, 0x00, 0x00, 0x00, 0x00, 
  0x00, 0x00, 0x00, 0x00, 0x00, 0x00, 0x00, 0x00, 0x00, 0x00, 0x00, 0x00, 
  0x00, 0x00, 0x00, 0x00, 0x00, 0x00, 0x00, 0x00, 0x00, 0x00, 0x00, 0x00, 
  0x00, 0x00, 0x00, 0x00, 0xFE, 0x00, 0x00, 0x00, 0x80, 0xFF, 0x03, 0x00, 
  0x00, 0xC0, 0xC3, 0x07, 0x00, 0x00, 0xE0, 0x00, 0x0E, 0x00, 0x00, 0x70, 
  0x00, 0x1C, 0x00, 0x00, 0x38, 0x00, 0x38, 0x00, 0x00, 0x18, 0x00, 0x30, 
  0x00, 0x00, 0x1C, 0x00, 0x70, 0x00, 0x00, 0x1C, 0x00, 0x70, 0x00, 0x00, 
  0x0C, 0x00, 0x70, 0x00, 0x00, 0x1C, 0x00, 0x60, 0x00, 0x00, 0x0C, 0x00, 
  0x70, 0x00, 0x00, 0x1C, 0x00, 0x70, 0x00, 0x00, 0x18, 0x00, 0x30, 0x00, 
  0x00, 0x38, 0x00, 0x38, 0x00, 0x00, 0x30, 0x00, 0x18, 0x00, 0x00, 0xF0, 
  0x00, 0x1C, 0x00, 0x00, 0xE0, 0x01, 0x0F, 0x00, 0x00, 0xC0, 0xFF, 0x07, 
  0x00, 0x00, 0x00, 0xFF, 0x01, 0x00, 0x00, 0x00, 0x18, 0x00, 0x00, 0x00, 
  0x00, 0x00, 0x00, 0x00, 0x00, 0x00, 0x00, 0x00, 0x00, 0x00, 0x00, 0x00, 
  0x00, 0x00, 0x00, 0x00, 0x00, 0x00, 0x00, 0x00, 0x00, 0x00, 0x00, 0x00, 
  0x00, 0x00, 0x00, 0x00, 0x00, 0x00, 0x00, 0x00, 0x00, 0x00, 0x00, 0x00, 
  0x00, 0x00, 0x00, 0x00, 0x00, 0x00, 0x00, 0x00, };
